<svg xmlns="http://www.w3.org/2000/svg" viewBox="0 0 595.28 419.53"><defs><style>.cls-1{fill:#efc459;}.cls-2{fill:none;stroke:#fff;stroke-miterlimit:10;stroke-width:3.75px;}.cls-3{fill:#fff;}</style></defs><title>automne</title><g id="fonds"><rect class="cls-1" x="-8.5" y="-6.93" width="612.28" height="436.54"/></g><g id="logos"><path class="cls-2" d="M380.06,82l-6.4-25.13L360.43,78.75q-1.46-.05-3-.06c-62.85-.26-72.11,63.9-68.21,87.7,8.51,52,68.21,194.89,68.21,194.89s57.61-143.68,68.21-194.89C429.9,146,422.43,95.51,380.06,82Z"/><line class="cls-2" x1="380.07" y1="200.05" x2="374.2" y2="222.2"/><polyline class="cls-2" points="370.18 197.43 373.95 223.15 389.54 202.56"/><line class="cls-2" x1="321.84" y1="184.19" x2="334.53" y2="203.27"/><polyline class="cls-2" points="312.97 189.51 334.73 203.73 329.65 178.41"/><path class="cls-3" d="M175.44,358.71l-2.19,5.41h-4.69L189.16,314h.35l20.65,50.09h-4.82l-2.15-5.41L202,355.62l-.42-1.08c-.07-.2-.17-.42-.26-.66l-.31-.77-.55-1.4c-.13-.33-.28-.68-.42-1l-.88-2.21c-3.71-9.25-9.75-24.12-9.75-24.12l-9.75,24.12h0Z"/><path class="cls-3" d="M227.14,315.51h12.23c16.19,0,25.83,10,25.83,24.46s-9.57,24.46-25.83,24.46H227.14Zm11.8,44.68c14.46,0,21.37-8.35,21.37-20.22s-6.91-20.22-21.37-20.22h-7.12v40.44Z"/><path class="cls-3" d="M281,358.71l-2.19,5.41h-4.69L294.74,314h.35l20.65,50.09h-4.82l-2.15-5.41-1.23-3.09-.42-1.08c-.07-.2-.17-.42-.26-.66l-.31-.77-.55-1.4c-.13-.33-.28-.68-.42-1l-.88-2.21c-3.71-9.25-9.75-24.12-9.75-24.12l-9.75,24.12h0Z"/></g></svg>