<svg xmlns="http://www.w3.org/2000/svg" viewBox="0 0 595.28 419.53"><defs><style>.cls-1{fill:#efc459;}.cls-2{fill:none;stroke:#1d1d1b;stroke-miterlimit:10;stroke-width:3.75px;}.cls-3{fill:#1d1d1b;}</style></defs><title>automne noir</title><g id="fonds"><rect class="cls-1" x="-8.5" y="-6.93" width="612.28" height="436.54"/></g><g id="logos"><path class="cls-2" d="M380.06,81.14,373.66,56,360.43,77.84q-1.46-.05-3-.06c-62.85-.26-72.11,63.9-68.21,87.7,8.51,52,68.21,194.89,68.21,194.89s57.61-143.68,68.21-194.89C429.9,145.06,422.43,94.61,380.06,81.14Z"/><line class="cls-2" x1="380.07" y1="199.14" x2="374.2" y2="221.29"/><polyline class="cls-2" points="370.18 196.52 373.95 222.24 389.54 201.66"/><line class="cls-2" x1="321.84" y1="183.29" x2="334.53" y2="202.37"/><polyline class="cls-2" points="312.97 188.6 334.73 202.82 329.65 177.5"/><path class="cls-3" d="M175.44,357.81l-2.19,5.41h-4.69l20.59-50.09h.35l20.65,50.09h-4.82l-2.15-5.41L202,354.72l-.42-1.08c-.07-.2-.17-.42-.26-.66l-.31-.77-.55-1.4c-.13-.33-.28-.68-.42-1l-.88-2.21c-3.71-9.25-9.75-24.12-9.75-24.12l-9.75,24.12h0Z"/><path class="cls-3" d="M227.14,314.6h12.23c16.19,0,25.83,10,25.83,24.46s-9.57,24.46-25.83,24.46H227.14Zm11.8,44.68c14.46,0,21.37-8.35,21.37-20.22s-6.91-20.22-21.37-20.22h-7.12v40.44Z"/><path class="cls-3" d="M281,357.8l-2.19,5.41h-4.69l20.59-50.09h.35l20.65,50.09h-4.82l-2.15-5.41-1.23-3.09-.42-1.08c-.07-.2-.17-.42-.26-.66l-.31-.77-.55-1.4c-.13-.33-.28-.68-.42-1l-.88-2.21c-3.71-9.25-9.75-24.12-9.75-24.12l-9.75,24.12h0Z"/></g></svg>