<svg xmlns="http://www.w3.org/2000/svg" viewBox="0 0 595.28 419.53"><defs><style>.cls-1{fill:#bcc6da;}.cls-2{fill:none;stroke:#fff;stroke-miterlimit:10;stroke-width:3.75px;}.cls-3{fill:#fff;}</style></defs><title>hiver</title><g id="fonds"><rect class="cls-1" x="-8.5" y="-11.34" width="612.28" height="442.2"/></g><g id="logos"><path class="cls-2" d="M380.06,81.59l-6.4-25.13L360.43,78.29q-1.46-.05-3-.06c-62.85-.26-72.11,63.9-68.21,87.7,8.51,52,68.21,194.89,68.21,194.89s57.61-143.68,68.21-194.89C429.9,145.52,422.43,95.06,380.06,81.59Z"/><line class="cls-2" x1="380.07" y1="199.6" x2="374.2" y2="221.75"/><polyline class="cls-2" points="370.18 196.97 373.95 222.69 389.54 202.11"/><line class="cls-2" x1="321.84" y1="183.74" x2="334.53" y2="202.82"/><polyline class="cls-2" points="312.97 189.05 334.73 203.27 329.65 177.95"/><path class="cls-3" d="M175.44,358.26l-2.19,5.41h-4.69l20.59-50.09h.35l20.65,50.09h-4.82l-2.15-5.41L202,355.17l-.42-1.08c-.07-.2-.17-.42-.26-.66l-.31-.77-.55-1.4c-.13-.33-.28-.68-.42-1l-.88-2.21c-3.71-9.25-9.75-24.12-9.75-24.12L179.62,348h0Z"/><path class="cls-3" d="M227.14,315.05h12.23c16.19,0,25.83,10,25.83,24.46S255.63,364,239.37,364H227.14Zm11.8,44.68c14.46,0,21.37-8.35,21.37-20.22s-6.91-20.22-21.37-20.22h-7.12v40.44Z"/><path class="cls-3" d="M281,358.26l-2.19,5.41h-4.69l20.59-50.09h.35l20.65,50.09h-4.82l-2.15-5.41-1.23-3.09-.42-1.08c-.07-.2-.17-.42-.26-.66l-.31-.77-.55-1.4c-.13-.33-.28-.68-.42-1l-.88-2.21c-3.71-9.25-9.75-24.12-9.75-24.12L285.2,348h0Z"/></g></svg>