<svg xmlns="http://www.w3.org/2000/svg" viewBox="0 0 595.28 419.53"><defs><style>.cls-1{fill:none;stroke:#fff;stroke-miterlimit:10;stroke-width:3.75px;}.cls-2{fill:#fff;}</style></defs><title>neg</title><g id="fonds"><rect x="-8.5" y="-8.5" width="615.28" height="436.54"/></g><g id="logos"><path class="cls-1" d="M380.06,80.46l-6.4-25.13L360.43,77.16q-1.46-.05-3-.06c-62.85-.26-72.11,63.9-68.21,87.7,8.51,52,68.21,194.89,68.21,194.89S415.08,216,425.68,164.8C429.9,144.39,422.43,93.93,380.06,80.46Z"/><line class="cls-1" x1="380.07" y1="198.47" x2="374.2" y2="220.62"/><polyline class="cls-1" points="370.18 195.84 373.95 221.56 389.54 200.98"/><line class="cls-1" x1="321.84" y1="182.61" x2="334.53" y2="201.69"/><polyline class="cls-1" points="312.97 187.92 334.73 202.14 329.65 176.82"/><path class="cls-2" d="M175.44,357.13l-2.19,5.41h-4.69l20.59-50.09h.35l20.65,50.09h-4.82l-2.15-5.41L202,354l-.42-1.08c-.07-.2-.17-.42-.26-.66l-.31-.77-.55-1.4c-.13-.33-.28-.68-.42-1l-.88-2.21c-3.71-9.25-9.75-24.12-9.75-24.12l-9.75,24.12h0Z"/><path class="cls-2" d="M227.14,313.92h12.23c16.19,0,25.83,10,25.83,24.46s-9.57,24.46-25.83,24.46H227.14Zm11.8,44.68c14.46,0,21.37-8.35,21.37-20.22s-6.91-20.22-21.37-20.22h-7.12v40.44Z"/><path class="cls-2" d="M281,357.13l-2.19,5.41h-4.69l20.59-50.09h.35l20.65,50.09h-4.82l-2.15-5.41L307.54,354l-.42-1.08c-.07-.2-.17-.42-.26-.66l-.31-.77-.55-1.4c-.13-.33-.28-.68-.42-1l-.88-2.21c-3.71-9.25-9.75-24.12-9.75-24.12l-9.75,24.12h0Z"/></g></svg>