<svg xmlns="http://www.w3.org/2000/svg" viewBox="0 0 595.28 419.53"><defs><style>.cls-1{fill:none;stroke:#1d1d1b;stroke-miterlimit:10;stroke-width:3.75px;}.cls-2{fill:#1d1d1b;}</style></defs><title>noir</title><g id="logos"><path class="cls-1" d="M380.06,80.91l-6.4-25.13L360.43,77.62q-1.46-.05-3-.06c-62.85-.26-72.11,63.9-68.21,87.7,8.51,52,68.21,194.89,68.21,194.89s57.61-143.68,68.21-194.89C429.9,144.84,422.43,94.39,380.06,80.91Z"/><line class="cls-1" x1="380.07" y1="198.92" x2="374.2" y2="221.07"/><polyline class="cls-1" points="370.18 196.3 373.95 222.02 389.54 201.43"/><line class="cls-1" x1="321.84" y1="183.06" x2="334.53" y2="202.14"/><polyline class="cls-1" points="312.97 188.38 334.73 202.6 329.65 177.28"/><path class="cls-2" d="M175.44,357.58,173.25,363h-4.69l20.59-50.09h.35L210.16,363h-4.82l-2.15-5.41L202,354.49l-.42-1.08c-.07-.2-.17-.42-.26-.66L201,352l-.55-1.4c-.13-.33-.28-.68-.42-1l-.88-2.21c-3.71-9.25-9.75-24.12-9.75-24.12l-9.75,24.12h0Z"/><path class="cls-2" d="M227.14,314.38h12.23c16.19,0,25.83,10,25.83,24.46s-9.57,24.46-25.83,24.46H227.14Zm11.8,44.68c14.46,0,21.37-8.35,21.37-20.22s-6.91-20.22-21.37-20.22h-7.12v40.44Z"/><path class="cls-2" d="M281,357.58,278.84,363h-4.69l20.59-50.09h.35L315.74,363h-4.82l-2.15-5.41-1.23-3.09-.42-1.08c-.07-.2-.17-.42-.26-.66l-.31-.77-.55-1.4c-.13-.33-.28-.68-.42-1l-.88-2.21c-3.71-9.25-9.75-24.12-9.75-24.12l-9.75,24.12h0Z"/></g></svg>